<svg width="48" height="48" viewBox="0 0 48 48" fill="none" xmlns="http://www.w3.org/2000/svg">
<g clip-path="url(#clip0_649_2)">
<path fill-rule="evenodd" clip-rule="evenodd" d="M29.448 0.109044L2.88816 2.0708C0.74544 2.25608 0 3.65624 0 5.33432V34.4511C0 35.7582 0.46416 36.8766 1.584 38.3713L7.82736 46.4895C8.85312 47.7966 9.78576 48.0769 11.7442 47.9838L42.5875 46.1166C45.1954 45.9308 45.9427 44.7164 45.9427 42.6639V9.90728C45.9427 8.84648 45.5237 8.54072 44.2901 7.63544L35.6002 1.50872C33.5491 0.0173642 32.7106 -0.171276 29.448 0.108564V0.109044ZM12.4416 9.37112C9.92304 9.54056 9.35184 9.57896 7.92144 8.41592L4.28496 5.52344C3.91536 5.14904 4.10112 4.682 5.03232 4.58888L30.565 2.72312C32.7091 2.53592 33.8256 3.28328 34.6642 3.93608L39.0432 7.10888C39.2304 7.20344 39.696 7.76168 39.1358 7.76168L12.768 9.34904L12.4416 9.37112ZM9.50544 42.3841V14.5762C9.50544 13.3618 9.8784 12.8017 10.9949 12.7076L41.28 10.9345C42.3072 10.8418 42.7714 11.4946 42.7714 12.7071V40.3297C42.7714 41.5441 42.5842 42.5713 40.9075 42.6639L11.9266 44.3439C10.2499 44.4366 9.50592 43.8783 9.50592 42.3841H9.50544ZM38.1134 16.0671C38.2992 16.9071 38.1134 17.7471 37.2734 17.8431L35.8766 18.1201V38.6511C34.6637 39.3039 33.5472 39.6769 32.6141 39.6769C31.1227 39.6769 30.7502 39.2098 29.6333 37.8111L20.4989 23.4399V37.3441L23.3885 37.9983C23.3885 37.9983 23.3885 39.6783 21.0571 39.6783L14.6299 40.0513C14.4427 39.6769 14.6299 38.7442 15.2813 38.5585L16.9598 38.0929V19.7089L14.6304 19.5202C14.4432 18.6802 14.9088 17.4673 16.2144 17.3732L23.1106 16.909L32.6146 31.466V18.5876L30.192 18.3092C30.0048 17.2806 30.7502 16.5332 31.6814 16.442L38.1134 16.0671Z" fill="#EEEEEE"/>
</g>
<defs>
<clipPath id="clip0_649_2">
<rect width="48" height="48" fill="white"/>
</clipPath>
</defs>
</svg>
