<svg width="400" height="400" viewBox="0 0 400 400" fill="none" xmlns="http://www.w3.org/2000/svg">
<g clip-path="url(#clip0_32_2)">
<path fill-rule="evenodd" clip-rule="evenodd" d="M399.999 200C399.999 310.456 310.456 399.999 200 399.999C89.5428 399.999 0 310.456 0 200C0 89.5428 89.5428 0 200 0C310.456 0 399.999 89.5428 399.999 200ZM147.946 132.361C147.946 151.402 132.511 166.838 113.469 166.838C94.4283 166.838 78.9925 151.402 78.9925 132.361C78.9925 113.32 94.4283 97.8842 113.469 97.8842C132.511 97.8842 147.946 113.32 147.946 132.361ZM234.477 132.361C234.477 151.402 219.041 166.838 200 166.838C180.959 166.838 165.523 151.402 165.523 132.361C165.523 113.32 180.959 97.8842 200 97.8842C219.041 97.8842 234.477 113.32 234.477 132.361ZM200 253.369C219.041 253.369 234.477 237.933 234.477 218.892C234.477 199.851 219.041 184.415 200 184.415C180.959 184.415 165.523 199.851 165.523 218.892C165.523 237.933 180.959 253.369 200 253.369ZM234.477 305.423C234.477 324.464 219.041 339.9 200 339.9C180.959 339.9 165.523 324.464 165.523 305.423C165.523 286.381 180.959 270.946 200 270.946C219.041 270.946 234.477 286.381 234.477 305.423ZM286.53 166.838C305.571 166.838 321.007 151.402 321.007 132.361C321.007 113.32 305.571 97.8842 286.53 97.8842C267.489 97.8842 252.053 113.32 252.053 132.361C252.053 151.402 267.489 166.838 286.53 166.838Z" fill="#828282"/>
</g>
<defs>
<clipPath id="clip0_32_2">
<rect width="400" height="400" fill="white"/>
</clipPath>
</defs>
</svg>
